<?xml version="1.0" encoding="utf-8"?>
<svg viewBox="126.52 137.32 252.899 136.286" width="252.899" height="136.286" xmlns="http://www.w3.org/2000/svg">
  <g style="stroke: none; stroke-width: 0; stroke-dasharray: none; stroke-linecap: butt; stroke-linejoin: miter; stroke-miterlimit: 10; fill: none; fill-rule: nonzero; opacity: 1;" transform="matrix(2.81, 0, 0, 2.81, 126.518425, 79.013191)">
    <path d="M 90 24.25 c 0 -0.896 -0.342 -1.792 -1.025 -2.475 c -1.366 -1.367 -3.583 -1.367 -4.949 0 L 45 60.8 L 5.975 21.775 c -1.367 -1.367 -3.583 -1.367 -4.95 0 c -1.366 1.367 -1.366 3.583 0 4.95 l 41.5 41.5 c 1.366 1.367 3.583 1.367 4.949 0 l 41.5 -41.5 C 89.658 26.042 90 25.146 90 24.25 z" style="stroke: white; stroke-width: 1; stroke-dasharray: none; stroke-linecap: butt; stroke-linejoin: miter; stroke-miterlimit: 10; fill-rule: nonzero; opacity: 1; fill: rgb(29, 185, 84);" transform=" matrix(1 0 0 1 0 0) " stroke-linecap="round"/>
  </g>
</svg>